<?xml version="1.0" encoding="UTF-8"?>
<svg version="1.1" xmlns="http://www.w3.org/2000/svg" width="1024" height="1024">
<path d="M0 0 C337.92 0 675.84 0 1024 0 C1024 337.92 1024 675.84 1024 1024 C686.08 1024 348.16 1024 0 1024 C0 686.08 0 348.16 0 0 Z " fill="#F5E6D3" transform="translate(0,0)"/>
<path d="M0 0 C133.98 0 267.96 0 406 0 C406 6.6 406 13.2 406 20 C420.19 20 434.38 20 449 20 C449 26.93 449 33.86 449 41 C455.93 41 462.86 41 470 41 C470 69.05 470 97.1 470 126 C477.26 126 484.52 126 492 126 C492 133.26 492 140.52 492 148 C505.86 148 519.72 148 534 148 C534 161.86 534 175.72 534 190 C541.26 190 548.52 190 556 190 C556 211.12 556 232.24 556 254 C549.07 254 542.14 254 535 254 C535.33 260.93 535.66 267.86 536 275 C521.15 275 506.3 275 491 275 C491 288.86 491 302.72 491 317 C484.07 317 477.14 317 470 317 C470 352.31 470 387.62 470 424 C483.86 424 497.72 424 512 424 C512 430.6 512 437.2 512 444 C519.26 444 526.52 444 534 444 C534 450.93 534 457.86 534 465 C541.26 465 548.52 465 556 465 C556 472.59 556 480.18 556 488 C562.93 488 569.86 488 577 488 C577 501.86 577 515.72 577 530 C583.93 529.67 590.86 529.34 598 529 C598 564.31 598 599.62 598 636 C591.07 636 584.14 636 577 636 C577 650.19 577 664.38 577 679 C570.07 679 563.14 679 556 679 C556 685.93 556 692.86 556 700 C548.74 700 541.48 700 534 700 C534 706.93 534 713.86 534 721 C527.07 721 520.14 721 513 721 C513.33 728.26 513.66 735.52 514 743 C485.62 743 457.24 743 428 743 C428 756.86 428 770.72 428 785 C420.74 785 413.48 785 406 785 C406 791.93 406 798.86 406 806 C392.14 806 378.28 806 364 806 C364 812.93 364 819.86 364 827 C279.19 827 194.38 827 107 827 C107 820.07 107 813.14 107 806 C92.81 806 78.62 806 64 806 C64 799.07 64 792.14 64 785 C57.07 785 50.14 785 43 785 C43 778.07 43 771.14 43 764 C35.74 764 28.48 764 21 764 C21 735.95 21 707.9 21 679 C14.07 679 7.14 679 0 679 C0 629.83 0 580.66 0 530 C-6.93 530 -13.86 530 -21 530 C-21 480.83 -21 431.66 -21 381 C-28.26 381 -35.52 381 -43 381 C-43 346.02 -43 311.04 -43 275 C-64.12 275 -85.24 275 -107 275 C-107 268.07 -107 261.14 -107 254 C-113.93 254 -120.86 254 -128 254 C-128 239.81 -128 225.62 -128 211 C-121.07 211 -114.14 211 -107 211 C-107 197.14 -107 183.28 -107 169 C-99.74 169 -92.48 169 -85 169 C-85 162.07 -85 155.14 -85 148 C-71.14 148 -57.28 148 -43 148 C-43 112.69 -43 77.38 -43 41 C-36.07 41 -29.14 41 -22 41 C-22 34.07 -22 27.14 -22 20 C-14.74 20 -7.48 20 0 20 C0 13.4 0 6.8 0 0 Z " fill="#080920" transform="translate(274,103)"/>
<path d="M0 0 C35.31 0 70.62 0 107 0 C107 21.12 107 42.24 107 64 C100.07 64 93.14 64 86 64 C86 70.6 86 77.2 86 84 C78.74 84 71.48 84 64 84 C64.33 84.66 64.66 85.32 65 86 C65.08400529 87.59447464 65.10727467 89.19240545 65.09765625 90.7890625 C65.09515869 91.63678223 65.09266113 92.48450195 65.09008789 93.35791016 C65.07643188 94.97511963 65.07643188 94.97511963 65.0625 96.625 C65.041875 100.04875 65.02125 103.4725 65 107 C57.74 107 50.48 107 43 107 C43 120.86 43 134.72 43 149 C36.07 149 29.14 149 22 149 C22 183.98 22 218.96 22 255 C28.93 255 35.86 255 43 255 C43 269.19 43 283.38 43 298 C49.93 298 56.86 298 64 298 C64 318.79 64 339.58 64 361 C57.07 361 50.14 361 43 361 C43 368.26 43 375.52 43 383 C-13.1 383 -69.2 383 -127 383 C-127 375.74 -127 368.48 -127 361 C-133.93 361 -140.86 361 -148 361 C-148 354.07 -148 347.14 -148 340 C-155.26 340 -162.52 340 -170 340 C-170.33 312.28 -170.66 284.56 -171 256 C-177.93 256 -184.86 256 -192 256 C-192.03084251 242.06250629 -192.05138531 228.12502373 -192.0625 214.1875 C-192.06335602 213.12197151 -192.06421204 212.05644302 -192.06509399 210.95862579 C-192.09254155 172.09499335 -191.86004034 133.236652 -191.5 94.375 C-191.48804218 93.08374081 -191.47608437 91.79248161 -191.46376419 90.46209335 C-191.31658173 74.64131917 -191.16133873 58.82063581 -191 43 C-177.14 43 -163.28 43 -149 43 C-149 49.93 -149 56.86 -149 64 C-127.88 64 -106.76 64 -85 64 C-85 57.07 -85 50.14 -85 43 C-70.81 43 -56.62 43 -42 43 C-42 36.07 -42 29.14 -42 22 C-28.14 22 -14.28 22 0 22 C0 14.74 0 7.48 0 0 Z " fill="#FEDA04" transform="translate(530,484)"/>
<path d="M0 0 C168.63 0 337.26 0 511 0 C511 6.93 511 13.86 511 21 C518.26 21 525.52 21 533 21 C533 34.86 533 48.72 533 63 C511.88 63 490.76 63 469 63 C469 70.26 469 77.52 469 85 C328.09 85 187.18 85 42 85 C42 77.74 42 70.48 42 63 C21.21 63 0.42 63 -21 63 C-21 49.14 -21 35.28 -21 21 C-14.07 21 -7.14 21 0 21 C0 14.07 0 7.14 0 0 Z " fill="#1F2242" transform="translate(232,272)"/>
<path d="M0 0 C34.98 0 69.96 0 106 0 C106 6.93 106 13.86 106 21 C112.93 21 119.86 21 127 21 C127 27.93 127 34.86 127 42 C134.26 42 141.52 42 149 42 C149 56.19 149 70.38 149 85 C156.26 85 163.52 85 171 85 C171 105.79 171 126.58 171 148 C163.74 148 156.48 148 149 148 C149 162.52 149 177.04 149 192 C141.74 192 134.48 192 127 192 C127 198.6 127 205.2 127 212 C120.07 212 113.14 212 106 212 C106 219.26 106 226.52 106 234 C71.02 234 36.04 234 0 234 C0 226.74 0 219.48 0 212 C-6.93 212 -13.86 212 -21 212 C-21 205.4 -21 198.8 -21 192 C-28.26 192 -35.52 192 -43 192 C-43 177.48 -43 162.96 -43 148 C-49.93 148 -56.86 148 -64 148 C-64 126.88 -64 105.76 -64 84 C-57.07 84.33 -50.14 84.66 -43 85 C-43 70.81 -43 56.62 -43 42 C-35.74 42 -28.48 42 -21 42 C-21 35.07 -21 28.14 -21 21 C-14.07 21 -7.14 21 0 21 C0 14.07 0 7.14 0 0 Z " fill="#FDDB04" transform="translate(659,569)"/>
<path d="M0 0 C126.72 0 253.44 0 384 0 C384 35.31 384 70.62 384 107 C377.07 107 370.14 107 363 107 C363 85.88 363 64.76 363 43 C313.5 43 264 43 213 43 C213 49.93 213 56.86 213 64 C198.81 64 184.62 64 170 64 C170 71.26 170 78.52 170 86 C128.09 86 86.18 86 43 86 C43 92.6 43 99.2 43 106 C56.86 106 70.72 106 85 106 C85 106.33 85 106.66 85 107 C71.14 107 57.28 107 43 107 C43 141.98 43 176.96 43 213 C35.41 213 27.82 213 20 213 C20 178.02 20 143.04 20 107 C13.4 107 6.8 107 0 107 C0 71.69 0 36.38 0 0 Z " fill="#1F2242" transform="translate(296,420)"/>
<path d="M0 0 C112.53 0 225.06 0 341 0 C341 6.93 341 13.86 341 21 C348.26 21 355.52 21 363 21 C363 35.19 363 49.38 363 64 C348.81 64 334.62 64 320 64 C320 57.07 320 50.14 320 43 C312.74 43 305.48 43 298 43 C298 49.93 298 56.86 298 64 C213.52 64 129.04 64 42 64 C42 57.07 42 50.14 42 43 C28.14 43 14.28 43 0 43 C0 28.81 0 14.62 0 0 Z " fill="#1F2243" transform="translate(296,144)"/>
<path d="M0 0 C6.93 0 13.86 0 21 0 C21 6.93 21 13.86 21 21 C35.19 21 49.38 21 64 21 C64 28.26 64 35.52 64 43 C49.81 43 35.62 43 21 43 C21 56.86 21 70.72 21 85 C28.26 85 35.52 85 43 85 C43 91.93 43 98.86 43 106 C35.74 106 28.48 106 21 106 C21 120.19 21 134.38 21 149 C28.26 149 35.52 149 43 149 C43 155.93 43 162.86 43 170 C35.74 170 28.48 170 21 170 C21 177.26 21 184.52 21 192 C14.07 192 7.14 192 0 192 C0 184.74 0 177.48 0 170 C-13.86 170 -27.72 170 -42 170 C-42 163.07 -42 156.14 -42 149 C-28.14 149 -14.28 149 0 149 C0 134.81 0 120.62 0 106 C-6.93 106 -13.86 106 -21 106 C-21 99.07 -21 92.14 -21 85 C-14.07 85 -7.14 85 0 85 C0 71.14 0 57.28 0 43 C-6.93 43 -13.86 43 -21 43 C-21 36.07 -21 29.14 -21 22 C-14.07 22 -7.14 22 0 22 C0 14.74 0 7.48 0 0 Z " fill="#0A0A20" transform="translate(701,590)"/>
<path d="M0 0 C1.22803007 3.6840902 1.08733412 7.03692035 1.02172852 10.86791992 C1.01212097 11.66815079 1.00251343 12.46838165 0.99261475 13.29286194 C0.9596246 15.93882037 0.9192923 18.58461371 0.87890625 21.23046875 C0.85460515 23.06463539 0.83076158 24.89880814 0.80735779 26.73298645 C0.74451587 31.56142134 0.67544947 36.38974802 0.60510254 41.21807861 C0.53442011 46.14468456 0.46960259 51.07136724 0.40429688 55.99804688 C0.2752831 65.6654512 0.13915407 75.33273631 0 85 C-6.93 85 -13.86 85 -21 85 C-21 57.61 -21 30.22 -21 2 C-14.07 2 -7.14 2 0 2 C0 1.34 0 0.68 0 0 Z " fill="#1F2242" transform="translate(359,739)"/>
<path d="M0 0 C0.33 0 0.66 0 1 0 C1 20.79 1 41.58 1 63 C7.93 63 14.86 63 22 63 C22 70.26 22 77.52 22 85 C8.14 85 -5.72 85 -20 85 C-20 77.74 -20 70.48 -20 63 C-13.4 63 -6.8 63 0 63 C0 42.21 0 21.42 0 0 Z " fill="#25263F" transform="translate(594,782)"/>
<path d="M0 0 C6.93 0 13.86 0 21 0 C21 13.86 21 27.72 21 42 C14.07 42 7.14 42 0 42 C0 28.14 0 14.28 0 0 Z " fill="#070721" transform="translate(744,697)"/>
<path d="M0 0 C6.6 0 13.2 0 20 0 C20 13.86 20 27.72 20 42 C13.4 42 6.8 42 0 42 C0 28.14 0 14.28 0 0 Z " fill="#070821" transform="translate(659,633)"/>
<path d="M0 0 C0.33 0 0.66 0 1 0 C1 16.5 1 33 1 50 C7.93 50 14.86 50 22 50 C23 51 23 51 23.11352539 52.85766602 C23.10828857 53.64842529 23.10305176 54.43918457 23.09765625 55.25390625 C23.09443359 56.10791016 23.09121094 56.96191406 23.08789062 57.84179688 C23.07951172 58.73962891 23.07113281 59.63746094 23.0625 60.5625 C23.05798828 61.46419922 23.05347656 62.36589844 23.04882812 63.29492188 C23.03700225 65.53001314 23.0205222 67.76497437 23 70 C23.56509277 69.98952637 24.13018555 69.97905273 24.71240234 69.96826172 C27.26655653 69.92675212 29.82063982 69.9006904 32.375 69.875 C33.70917969 69.84986328 33.70917969 69.84986328 35.0703125 69.82421875 C35.92109375 69.81777344 36.771875 69.81132813 37.6484375 69.8046875 C38.43395996 69.79421387 39.21948242 69.78374023 40.02880859 69.77294922 C42 70 42 70 44 72 C44.22705078 73.97119141 44.22705078 73.97119141 44.1953125 76.3515625 C44.18886719 77.20234375 44.18242187 78.053125 44.17578125 78.9296875 C44.15902344 79.81914063 44.14226562 80.70859375 44.125 81.625 C44.11597656 82.5221875 44.10695313 83.419375 44.09765625 84.34375 C44.0740497 86.56276586 44.0411231 88.78125077 44 91 C45.23153809 90.99476318 46.46307617 90.98952637 47.73193359 90.98413086 C52.29035722 90.96606447 56.84877767 90.95456196 61.40722656 90.94506836 C63.38216687 90.9400319 65.35710343 90.93320249 67.33203125 90.92456055 C70.16667605 90.91246492 73.00127166 90.9067649 75.8359375 90.90234375 C76.72243988 90.89718246 77.60894226 90.89202118 78.52230835 90.88670349 C84.77225659 90.88612829 84.77225659 90.88612829 87 92 C87 98.6 87 105.2 87 112 C170.49 112 253.98 112 340 112 C340 112.33 340 112.66 340 113 C255.85 113 171.7 113 85 113 C85 106.4 85 99.8 85 93 C70.81 93 56.62 93 42 93 C42 86.07 42 79.14 42 72 C35.07 72 28.14 72 21 72 C21 65.07 21 58.14 21 51 C13.74 51 6.48 51 -1 51 C-1.02290307 43.89750243 -1.04283197 36.79513197 -1.05493164 29.69262695 C-1.05997349 27.27432828 -1.06680678 24.85603267 -1.07543945 22.43774414 C-1.08751157 18.97020717 -1.09322963 15.50271034 -1.09765625 12.03515625 C-1.10281754 10.94662857 -1.10797882 9.85810089 -1.11329651 8.73658752 C-1.11337204 7.73562546 -1.11344757 6.73466339 -1.11352539 5.70336914 C-1.115746 4.81734512 -1.11796661 3.93132111 -1.12025452 3.01844788 C-1 1 -1 1 0 0 Z " fill="#000009" transform="translate(296,816)"/>
<path d="M0 0 C6.6 0 13.2 0 20 0 C21.34661724 2.69323448 21.12284174 4.76652563 21.12025452 7.78323364 C21.12162918 9.01444946 21.12300385 10.24566528 21.12442017 11.51419067 C21.1208808 12.88592553 21.11724598 14.25766015 21.11352539 15.62939453 C21.11324344 17.06809487 21.11340141 18.50679535 21.1139679 19.94549561 C21.11425556 23.85848805 21.10836378 27.77145002 21.10139394 31.68443537 C21.09515531 35.77105716 21.0945562 39.8576796 21.09336853 43.94430542 C21.09025672 51.68617603 21.08204535 59.42803256 21.07201904 67.16989696 C21.06085325 75.98234931 21.05534628 84.79480233 21.05032361 93.60725999 C21.03986262 111.73818131 21.02226608 129.86908953 21 148 C21.57032959 147.99476318 22.14065918 147.98952637 22.72827148 147.98413086 C25.29800323 147.96341779 27.86771747 147.9503581 30.4375 147.9375 C31.33533203 147.92912109 32.23316406 147.92074219 33.15820312 147.91210938 C34.43920898 147.90727539 34.43920898 147.90727539 35.74609375 147.90234375 C36.53685303 147.89710693 37.3276123 147.89187012 38.14233398 147.88647461 C40 148 40 148 41 149 C41.09658904 150.91094939 41.12187192 152.82551866 41.12025452 154.73890686 C41.12162918 155.98557632 41.12300385 157.23224579 41.12442017 158.51669312 C41.12088056 159.91094994 41.11724574 161.30520653 41.11352539 162.69946289 C41.11324353 164.15771991 41.11340124 165.61597707 41.1139679 167.07423401 C41.1142559 171.04513485 41.10835877 175.01600575 41.10139394 178.98689961 C41.09516081 183.13225101 41.09455663 187.27760302 41.09336853 191.42295837 C41.09025509 199.27819327 41.08204154 207.13341432 41.07201904 214.98864311 C41.06085829 223.92924399 41.05534755 232.86984552 41.05032361 241.81045163 C41.03985893 260.20697583 41.02205883 278.6034863 41 297 C47.6 297 54.2 297 61 297 C61 297.33 61 297.66 61 298 C54.07 298 47.14 298 40 298 C40 249.16 40 200.32 40 150 C33.07 150 26.14 150 19 150 C19 100.83 19 51.66 19 1 C12.73 1 6.46 1 0 1 C0 0.67 0 0.34 0 0 Z " fill="#000107" transform="translate(234,483)"/>
<path d="M0 0 C6.93 0 13.86 0 21 0 C21 6.93 21 13.86 21 21 C14.07 21 7.14 21 0 21 C0 14.07 0 7.14 0 0 Z " fill="#202343" transform="translate(616,824)"/>
<path d="M0 0 C0.33 0 0.66 0 1 0 C1 35.31 1 70.62 1 107 C14.86 107 28.72 107 43 107 C43 113.6 43 120.2 43 127 C50.26 127 57.52 127 65 127 C65 133.93 65 140.86 65 148 C72.26 148 79.52 148 87 148 C87 155.59 87 163.18 87 171 C93.93 171 100.86 171 108 171 C107.67 184.86 107.34 198.72 107 213 C106.67 213 106.34 213 106 213 C106 199.47 106 185.94 106 172 C99.4 172 92.8 172 86 172 C85 171 85 171 84.88647461 168.95874023 C84.89432983 167.64691772 84.89432983 167.64691772 84.90234375 166.30859375 C84.90717773 164.89223633 84.90717773 164.89223633 84.91210938 163.44726562 C84.92467773 161.95743164 84.92467773 161.95743164 84.9375 160.4375 C84.94201172 159.44041016 84.94652344 158.44332031 84.95117188 157.41601562 C84.96299993 154.94395151 84.97948151 152.47200482 85 150 C84.39937744 150.00523682 83.79875488 150.01047363 83.17993164 150.01586914 C80.47413162 150.03658014 77.76834823 150.04964125 75.0625 150.0625 C74.11697266 150.07087891 73.17144531 150.07925781 72.19726562 150.08789062 C71.29814453 150.09111328 70.39902344 150.09433594 69.47265625 150.09765625 C68.64000244 150.10289307 67.80734863 150.10812988 66.94946289 150.11352539 C65 150 65 150 64 149 C63.91330568 147.5112814 63.89296506 146.018555 63.90234375 144.52734375 C63.90556641 143.62822266 63.90878906 142.72910156 63.91210938 141.80273438 C63.92467773 140.38444336 63.92467773 140.38444336 63.9375 138.9375 C63.94201172 137.98810547 63.94652344 137.03871094 63.95117188 136.06054688 C63.9629989 133.70696935 63.97947975 131.35351523 64 129 C63.11477661 129.02356567 63.11477661 129.02356567 62.21166992 129.04760742 C59.53704414 129.10997939 56.86257136 129.14899657 54.1875 129.1875 C53.25873047 129.21263672 52.32996094 129.23777344 51.37304688 129.26367188 C50.0340332 129.27817383 50.0340332 129.27817383 48.66796875 129.29296875 C47.43469849 129.31653442 47.43469849 129.31653442 46.17651367 129.34057617 C44 129 44 129 41 126 C41 120.06 41 114.12 41 108 C27.47 108 13.94 108 0 108 C0 72.36 0 36.72 0 0 Z " fill="#000006" transform="translate(743,420)"/>
<path d="M0 0 C7.26 0 14.52 0 22 0 C22 0.33 22 0.66 22 1 C15.4 1 8.8 1 2 1 C2 34.99 2 68.98 2 104 C15.53 104 29.06 104 43 104 C42.34 104.66 41.68 105.32 41 106 C27.47 106 13.94 106 0 106 C0 71.02 0 36.04 0 0 Z " fill="#FCF5EA" transform="translate(744,421)"/>
<path d="M0 0 C0.33 0 0.66 0 1 0 C1 20.46 1 40.92 1 62 C-5.93 62 -12.86 62 -20 62 C-19.505 72.395 -19.505 72.395 -19 83 C-33.85 83 -48.7 83 -64 83 C-64 96.86 -64 110.72 -64 125 C-70.93 125 -77.86 125 -85 125 C-85 124.67 -85 124.34 -85 124 C-78.4 124 -71.8 124 -65 124 C-65 110.14 -65 96.28 -65 82 C-50.48 82 -35.96 82 -21 82 C-21 75.07 -21 68.14 -21 61 C-20 60 -20 60 -18.14233398 59.88647461 C-16.95619507 59.89432983 -16.95619507 59.89432983 -15.74609375 59.90234375 C-14.46508789 59.90717773 -14.46508789 59.90717773 -13.15820312 59.91210938 C-11.81145508 59.92467773 -11.81145508 59.92467773 -10.4375 59.9375 C-9.53580078 59.94201172 -8.63410156 59.94652344 -7.70507812 59.95117188 C-5.46998686 59.96299775 -3.23502563 59.9794778 -1 60 C-1.00222061 59.26306412 -1.00444122 58.52612823 -1.00672913 57.76686096 C-1.02673203 50.83587231 -1.04197413 43.90488796 -1.05181217 36.97387791 C-1.05703995 33.41022578 -1.06413569 29.84659743 -1.07543945 26.28295898 C-1.08834176 22.18993903 -1.09322906 18.0969442 -1.09765625 14.00390625 C-1.10281754 12.71851456 -1.10797882 11.43312286 -1.11329651 10.10877991 C-1.11337204 8.92763107 -1.11344757 7.74648224 -1.11352539 6.52954102 C-1.115746 5.48363297 -1.11796661 4.43772491 -1.12025452 3.36012268 C-1 1 -1 1 0 0 Z " fill="#010006" transform="translate(829,295)"/>
<path d="M0 0 C28.71 0.33 57.42 0.66 87 1 C87 1.33 87 1.66 87 2 C58.62 2 30.24 2 1 2 C1 15.86 1 29.72 1 44 C-6.59 44 -14.18 44 -22 44 C-21.67 43.34 -21.34 42.68 -21 42 C-14.4 42 -7.8 42 -1 42 C-1.01160156 39.13570312 -1.02320313 36.27140625 -1.03515625 33.3203125 C-1.04294962 30.5535493 -1.04902479 27.78678732 -1.05493164 25.02001953 C-1.05996787 23.09358169 -1.06679712 21.16714769 -1.07543945 19.24072266 C-1.08753608 16.47557632 -1.09323533 13.71048042 -1.09765625 10.9453125 C-1.10281754 10.0806839 -1.10797882 9.2160553 -1.11329651 8.32522583 C-1.11387171 2.22774341 -1.11387171 2.22774341 0 0 Z " fill="#211E28" transform="translate(701,844)"/>
<path d="M0 0 C6.93 0 13.86 0 21 0 C21.04125 3.25875 21.0825 6.5175 21.125 9.875 C21.14320801 10.90093262 21.16141602 11.92686523 21.18017578 12.98388672 C21.1851709 13.79100098 21.19016602 14.59811523 21.1953125 15.4296875 C21.21102295 16.67081299 21.21102295 16.67081299 21.22705078 17.93701172 C21 20 21 20 19 22 C19 15.4 19 8.8 19 2 C13.39 2 7.78 2 2 2 C2.01160156 3.43214844 2.02320313 4.86429688 2.03515625 6.33984375 C2.04453255 8.20572787 2.05363292 10.07161339 2.0625 11.9375 C2.07087891 12.88302734 2.07925781 13.82855469 2.08789062 14.80273438 C2.09272461 16.15141602 2.09272461 16.15141602 2.09765625 17.52734375 C2.10551147 18.77632446 2.10551147 18.77632446 2.11352539 20.05053711 C2 22 2 22 1 23 C-0.56172745 23.08685603 -2.12729344 23.10702219 -3.69140625 23.09765625 C-4.63564453 23.09443359 -5.57988281 23.09121094 -6.55273438 23.08789062 C-8.04256836 23.07532227 -8.04256836 23.07532227 -9.5625 23.0625 C-10.55958984 23.05798828 -11.55667969 23.05347656 -12.58398438 23.04882812 C-15.05601487 23.03700023 -17.52801472 23.01906415 -20 23 C-20 28.94 -20 34.88 -20 41 C-13.4 41 -6.8 41 0 41 C0 41.33 0 41.66 0 42 C-6.93 42 -13.86 42 -21 42 C-21 35.4 -21 28.8 -21 22 C-14.07 22 -7.14 22 0 22 C0 14.74 0 7.48 0 0 Z " fill="#000026" transform="translate(701,590)"/>
<path d="M0 0 C0.66 0 1.32 0 2 0 C2.05791844 3.12492251 2.09356746 6.24970766 2.125 9.375 C2.14175781 10.26445312 2.15851563 11.15390625 2.17578125 12.0703125 C2.18222656 12.92109375 2.18867188 13.771875 2.1953125 14.6484375 C2.20578613 15.43395996 2.21625977 16.21948242 2.22705078 17.02880859 C2 19 2 19 0 21 C-2.06298828 21.22705078 -2.06298828 21.22705078 -4.5703125 21.1953125 C-5.78098389 21.18781982 -5.78098389 21.18781982 -7.01611328 21.18017578 C-8.55501221 21.15286377 -8.55501221 21.15286377 -10.125 21.125 C-15.013125 21.063125 -15.013125 21.063125 -20 21 C-20 33.54 -20 46.08 -20 59 C-20.99 59.495 -20.99 59.495 -22 60 C-22 46.47 -22 32.94 -22 19 C-14.74 19 -7.48 19 0 19 C0 12.73 0 6.46 0 0 Z " fill="#00010B" transform="translate(189,253)"/>
<path d="M0 0 C0.83265381 0.00523682 1.66530762 0.01047363 2.52319336 0.01586914 C3.42231445 0.0190918 4.32143555 0.02231445 5.24780273 0.02563477 C6.66609375 0.03820312 6.66609375 0.03820312 8.11303711 0.05102539 C9.06243164 0.05553711 10.01182617 0.06004883 10.98999023 0.06469727 C13.34356776 0.07652429 15.69702188 0.09300514 18.05053711 0.11352539 C18.54553711 1.10352539 18.54553711 1.10352539 19.05053711 2.11352539 C12.45053711 2.11352539 5.85053711 2.11352539 -0.94946289 2.11352539 C-0.94946289 15.64352539 -0.94946289 29.17352539 -0.94946289 43.11352539 C-7.87946289 43.11352539 -14.80946289 43.11352539 -21.94946289 43.11352539 C-21.94946289 42.78352539 -21.94946289 42.45352539 -21.94946289 42.11352539 C-15.67946289 42.11352539 -9.40946289 42.11352539 -2.94946289 42.11352539 C-2.96106445 39.16543945 -2.97266602 36.21735352 -2.98461914 33.17993164 C-2.99240906 30.33707792 -2.99848619 27.49422537 -3.00439453 24.65136719 C-3.00943556 22.66959098 -3.01626827 20.6878185 -3.02490234 18.70605469 C-3.03697804 15.86400431 -3.04269334 13.02200292 -3.04711914 10.17993164 C-3.05228043 9.28826797 -3.05744171 8.39660431 -3.0627594 7.47792053 C-3.06295466 5.35611938 -3.01156319 3.23441759 -2.94946289 1.11352539 C-1.94946289 0.11352539 -1.94946289 0.11352539 0 0 Z " fill="#FDEF01" transform="translate(573.949462890625,588.886474609375)"/>
<path d="M0 0 C0.33 0 0.66 0 1 0 C1 3.96 1 7.92 1 12 C-4.80239614 12.04934656 -10.60467081 12.08569402 -16.40722656 12.10986328 C-18.38218309 12.11993627 -20.35712466 12.13359521 -22.33203125 12.15087891 C-25.16670418 12.17507039 -28.00118038 12.18646991 -30.8359375 12.1953125 C-31.72243988 12.20563507 -32.60894226 12.21595764 -33.52230835 12.22659302 C-35.68285952 12.2269907 -37.84293718 12.12272534 -40 12 C-40.66 11.34 -41.32 10.68 -42 10 C-28.8 9.67 -15.6 9.34 -2 9 C-1.67 6.36 -1.34 3.72 -1 1 C-0.67 0.67 -0.34 0.34 0 0 Z " fill="#020025" transform="translate(764,621)"/>
<path d="M0 0 C14.19 0 28.38 0 43 0 C43 0.33 43 0.66 43 1 C29.47 1 15.94 1 2 1 C2 7.93 2 14.86 2 22 C-0.31 21.67 -2.62 21.34 -5 21 C-5 20.67 -5 20.34 -5 20 C-3.35 20 -1.7 20 0 20 C0 13.4 0 6.8 0 0 Z " fill="#191222" transform="translate(486,505)"/>
<path d="M0 0 C6.93 0 13.86 0 21 0 C21 0.33 21 0.66 21 1 C15.06 1 9.12 1 3 1 C3 7.6 3 14.2 3 21 C2.34 21 1.68 21 1 21 C-0.17426264 18.65147472 -0.11508173 17.26225935 -0.09765625 14.6484375 C-0.09515869 13.88192871 -0.09266113 13.11541992 -0.09008789 12.32568359 C-0.07643188 10.86509521 -0.07643188 10.86509521 -0.0625 9.375 C-0.041875 6.28125 -0.02125 3.1875 0 0 Z " fill="#E0DAD2" transform="translate(809,357)"/>
<path d="M0 0 C2 2 2 2 2.1953125 5.6953125 C2.1838709 7.17201668 2.15789907 8.64861801 2.125 10.125 C2.08375 12.72375 2.0425 15.3225 2 18 C8.27 18 14.54 18 21 18 C21 18.66 21 19.32 21 20 C14.07 20 7.14 20 0 20 C0 13.4 0 6.8 0 0 Z " fill="#1B1521" transform="translate(701,762)"/>
<path d="M0 0 C0.66 0 1.32 0 2 0 C2 6.93 2 13.86 2 21 C-4.27 21 -10.54 21 -17 21 C-17 20.34 -17 19.68 -17 19 C-11.39 19 -5.78 19 0 19 C0 12.73 0 6.46 0 0 Z " fill="#FDF6EA" transform="translate(272,102)"/>
<path d="M0 0 C1.37466431 0.07069702 1.37466431 0.07069702 2.77709961 0.14282227 C4.26113281 0.21533203 4.26113281 0.21533203 5.77514648 0.28930664 C7.33652344 0.37341797 7.33652344 0.37341797 8.92944336 0.45922852 C10.49662109 0.53753906 10.49662109 0.53753906 12.09545898 0.61743164 C14.68622572 0.74756148 17.27665002 0.8825401 19.86694336 1.02172852 C19.86694336 1.35172852 19.86694336 1.68172852 19.86694336 2.02172852 C12.93694336 2.02172852 6.00694336 2.02172852 -1.13305664 2.02172852 C-1.13305664 7.96172852 -1.13305664 13.90172852 -1.13305664 20.02172852 C-1.79305664 20.35172852 -2.45305664 20.68172852 -3.13305664 21.02172852 C-3.16193811 17.70924665 -3.17981463 14.39679684 -3.19555664 11.08422852 C-3.20393555 10.13870117 -3.21231445 9.19317383 -3.22094727 8.21899414 C-3.22416992 7.31987305 -3.22739258 6.42075195 -3.23071289 5.49438477 C-3.23594971 4.66173096 -3.24118652 3.82907715 -3.24658203 2.97119141 C-3.08527159 0.20116149 -2.77851611 0.02830353 0 0 Z " fill="#201D28" transform="translate(831.133056640625,779.978271484375)"/>
<path d="M0 0 C0.33 0 0.66 0 1 0 C1 4.29 1 8.58 1 13 C7.93 13 14.86 13 22 13 C22 13.33 22 13.66 22 14 C15.07 14 8.14 14 1 14 C1 18.95 1 23.9 1 29 C0.67 29 0.34 29 0 29 C-0.81826135 19.19345244 -1.09317357 9.82174407 0 0 Z " fill="#000131" transform="translate(337,727)"/>
<path d="M0 0 C2.64 0 5.28 0 8 0 C6.03617993 1.50559539 4.21736634 2.89131683 2 4 C2 6.64 2 9.28 2 12 C1.01 12.495 1.01 12.495 0 13 C0 8.71 0 4.42 0 0 Z " fill="#010124" transform="translate(616,548)"/>
</svg>
